{
  "accessors": [
    {
      "bufferView": 2,
      "componentType": 5126,
      "count": 24,
      "max": [
        0.800645112991333,
        5.269032955169678,
        -0.57723468542099
      ],
      "min": [
        -0.7996643781661987,
        -4.671675682067871,
        -0.6321057081222534
      ],
      "type": "VEC3"
    },
    {
      "bufferView": 2,
      "byteOffset": 288,
      "componentType": 5126,
      "count": 24,
      "max": [
        1.0,
        1.0,
        1.0
      ],
      "min": [
        -1.0,
        -1.0,
        -1.0
      ],
      "type": "VEC3"
    },
    {
      "bufferView": 1,
      "componentType": 5126,
      "count": 24,
      "max": [
        5.256892204284668,
        6.842523097991943
      ],
      "min": [
        -4.256892204284668,
        -5.842523097991943
      ],
      "type": "VEC2"
    },
    {
      "bufferView": 0,
      "componentType": 5125,
      "count": 36,
      "type": "SCALAR"
    },
    {
      "bufferView": 2,
      "byteOffset": 576,
      "componentType": 5126,
      "count": 88,
      "max": [
        1.0713496208190918,
        7.011350154876709,
        -0.26595208048820496
      ],
      "min": [
        -1.128084659576416,
        -1.0083287954330444,
        -0.8419522643089294
      ],
      "type": "VEC3"
    },
    {
      "bufferView": 2,
      "byteOffset": 1632,
      "componentType": 5126,
      "count": 88,
      "max": [
        0.9999980926513672,
        1.0,
        0.9999974966049194
      ],
      "min": [
        -0.9999219179153442,
        -0.9999666213989258,
        -1.0
      ],
      "type": "VEC3"
    },
    {
      "bufferView": 1,
      "byteOffset": 192,
      "componentType": 5126,
      "count": 88,
      "max": [
        0.9999131560325623,
        0.5196095705032349
      ],
      "min": [
        -1.221978783607483,
        -0.0697917640209198
      ],
      "type": "VEC2"
    },
    {
      "bufferView": 0,
      "byteOffset": 144,
      "componentType": 5125,
      "count": 132,
      "type": "SCALAR"
    },
    {
      "bufferView": 2,
      "byteOffset": 2688,
      "componentType": 5126,
      "count": 12,
      "max": [
        1.0009381771087646,
        7.004479885101318,
        -0.26595208048820496
      ],
      "min": [
        -1.0059940814971924,
        -1.008178949356079,
        -0.8400123119354248
      ],
      "type": "VEC3"
    },
    {
      "bufferView": 2,
      "byteOffset": 2832,
      "componentType": 5126,
      "count": 12,
      "max": [
        0.0005692819249816239,
        7.843063212931156e-05,
        1.0
      ],
      "min": [
        -0.00045428727753460407,
        -0.0001292682281928137,
        -0.9999998807907104
      ],
      "type": "VEC3"
    },
    {
      "bufferView": 1,
      "byteOffset": 896,
      "componentType": 5126,
      "count": 12,
      "max": [
        1.0011948347091675,
        0.517501711845398
      ],
      "min": [
        0.08065680414438248,
        0.08068206906318665
      ],
      "type": "VEC2"
    },
    {
      "bufferView": 0,
      "byteOffset": 672,
      "componentType": 5125,
      "count": 18,
      "type": "SCALAR"
    },
    {
      "bufferView": 2,
      "byteOffset": 2976,
      "componentType": 5126,
      "count": 1724,
      "max": [
        0.7433228492736816,
        4.041862964630127,
        -0.37686631083488464
      ],
      "min": [
        -0.769371509552002,
        -3.07538104057312,
        -0.5689668655395508
      ],
      "type": "VEC3"
    },
    {
      "bufferView": 2,
      "byteOffset": 23664,
      "componentType": 5126,
      "count": 1724,
      "max": [
        1.0,
        1.0,
        1.0
      ],
      "min": [
        -0.9999983310699463,
        -1.0,
        -1.0
      ],
      "type": "VEC3"
    },
    {
      "bufferView": 1,
      "byteOffset": 992,
      "componentType": 5126,
      "count": 1724,
      "max": [
        0.8750000596046448,
        1.0
      ],
      "min": [
        0.125,
        0.0
      ],
      "type": "VEC2"
    },
    {
      "bufferView": 0,
      "byteOffset": 744,
      "componentType": 5125,
      "count": 5160,
      "type": "SCALAR"
    },
    {
      "bufferView": 2,
      "byteOffset": 44352,
      "componentType": 5126,
      "count": 32,
      "max": [
        1.2353708744049072,
        0.3546779751777649,
        10.031275749206543
      ],
      "min": [
        -1.9778543710708618,
        -0.9761789441108704,
        -1.8590482473373413
      ],
      "type": "VEC3"
    },
    {
      "bufferView": 2,
      "byteOffset": 44736,
      "componentType": 5126,
      "count": 32,
      "max": [
        0.9999454617500305,
        0.9999490976333618,
        0.00034365005558356643
      ],
      "min": [
        -0.9999599456787109,
        -0.9999552965164185,
        -0.0012310909805819392
      ],
      "type": "VEC3"
    },
    {
      "bufferView": 1,
      "byteOffset": 14784,
      "componentType": 5126,
      "count": 32,
      "max": [
        1.0027731657028198,
        0.946242094039917
      ],
      "min": [
        -2.0663938522338867,
        -0.425646036863327
      ],
      "type": "VEC2"
    },
    {
      "bufferView": 0,
      "byteOffset": 21384,
      "componentType": 5125,
      "count": 48,
      "type": "SCALAR"
    },
    {
      "bufferView": 2,
      "byteOffset": 45120,
      "componentType": 5126,
      "count": 80,
      "max": [
        1.2355434894561768,
        0.36392563581466675,
        10.086833000183105
      ],
      "min": [
        -1.9782788753509521,
        -0.9761902689933777,
        -1.9272276163101196
      ],
      "type": "VEC3"
    },
    {
      "bufferView": 2,
      "byteOffset": 46080,
      "componentType": 5126,
      "count": 80,
      "max": [
        0.9999433159828186,
        0.9999500513076782,
        0.14669115841388702
      ],
      "min": [
        -0.9999598860740662,
        -0.999950110912323,
        -0.25874513387680054
      ],
      "type": "VEC3"
    },
    {
      "bufferView": 1,
      "byteOffset": 15040,
      "componentType": 5126,
      "count": 80,
      "max": [
        1.0027731657028198,
        1.0739340782165527
      ],
      "min": [
        -2.0663938522338867,
        -0.425646036863327
      ],
      "type": "VEC2"
    },
    {
      "bufferView": 0,
      "byteOffset": 21576,
      "componentType": 5125,
      "count": 120,
      "type": "SCALAR"
    },
    {
      "bufferView": 2,
      "byteOffset": 47040,
      "componentType": 5126,
      "count": 24,
      "max": [
        1.2355434894561768,
        0.36392563581466675,
        10.086833000183105
      ],
      "min": [
        -1.9782788753509521,
        -0.9761902689933777,
        -1.9272276163101196
      ],
      "type": "VEC3"
    },
    {
      "bufferView": 2,
      "byteOffset": 47328,
      "componentType": 5126,
      "count": 24,
      "max": [
        0.0006262115202844143,
        0.0,
        1.0
      ],
      "min": [
        -0.007079635746777058,
        -0.05492174252867699,
        -0.9999997615814209
      ],
      "type": "VEC3"
    },
    {
      "bufferView": 1,
      "byteOffset": 15680,
      "componentType": 5126,
      "count": 24,
      "max": [
        0.14392070472240448,
        1.0739340782165527
      ],
      "min": [
        -2.0663938522338867,
        -0.425646036863327
      ],
      "type": "VEC2"
    },
    {
      "bufferView": 0,
      "byteOffset": 22056,
      "componentType": 5125,
      "count": 36,
      "type": "SCALAR"
    }
  ],
  "asset": {
    "extras": {
      "author": "KillerN13 (https://sketchfab.com/KillerN13)",
      "license": "CC-BY-4.0 (http://creativecommons.org/licenses/by/4.0/)",
      "source": "https://sketchfab.com/3d-models/flash-wondermint-chewing-gum-1f74f5f00d8e42a5a2313abeb6a5bafd",
      "title": "FLASH  WONDERMINT : Chewing Gum"
    },
    "generator": "Sketchfab-16.17.0",
    "version": "2.0"
  },
  "bufferViews": [
    {
      "buffer": 0,
      "byteLength": 22200,
      "name": "floatBufferViews",
      "target": 34963
    },
    {
      "buffer": 0,
      "byteLength": 15872,
      "byteOffset": 22200,
      "byteStride": 8,
      "name": "floatBufferViews",
      "target": 34962
    },
    {
      "buffer": 0,
      "byteLength": 47616,
      "byteOffset": 38072,
      "byteStride": 12,
      "name": "floatBufferViews",
      "target": 34962
    }
  ],
  "buffers": [
    {
      "byteLength": 85688,
      "uri": "scene.bin"
    }
  ],
  "extensionsUsed": [
    "KHR_materials_specular"
  ],
  "images": [
    {
      "uri": "textures/Material_baseColor.jpeg"
    },
    {
      "uri": "textures/Material.003_baseColor.jpeg"
    },
    {
      "uri": "textures/Material.003_metallicRoughness.png"
    }
  ],
  "materials": [
    {
      "doubleSided": true,
      "extensions": {
        "KHR_materials_specular": {
          "specularColorFactor": [
            1.0,
            1.0,
            1.0
          ],
          "specularFactor": 0.0
        }
      },
      "name": "Material",
      "pbrMetallicRoughness": {
        "baseColorTexture": {
          "index": 0
        },
        "metallicFactor": 0.37638209945020784,
        "roughnessFactor": 0.0
      }
    },
    {
      "doubleSided": true,
      "name": "Material.005",
      "pbrMetallicRoughness": {
        "baseColorFactor": [
          1.0,
          0.953266,
          0.227748,
          1.0
        ],
        "metallicFactor": 0.0
      }
    },
    {
      "doubleSided": true,
      "extensions": {
        "KHR_materials_specular": {
          "specularColorFactor": [
            1.0,
            1.0,
            1.0
          ],
          "specularFactor": 0.0
        }
      },
      "name": "Material.003",
      "pbrMetallicRoughness": {
        "baseColorTexture": {
          "index": 1
        },
        "metallicFactor": 0.0,
        "metallicRoughnessTexture": {
          "index": 2
        }
      }
    },
    {
      "doubleSided": true,
      "extensions": {
        "KHR_materials_specular": {
          "specularColorFactor": [
            1.0,
            1.0,
            1.0
          ],
          "specularFactor": 0.0
        }
      },
      "name": "Material.001",
      "pbrMetallicRoughness": {
        "baseColorFactor": [
          0.2618891781927143,
          0.2618891781927143,
          0.2618891781927143,
          1.0
        ],
        "metallicFactor": 0.5531445429167022,
        "roughnessFactor": 0.0
      }
    },
    {
      "doubleSided": true,
      "extensions": {
        "KHR_materials_specular": {
          "specularColorFactor": [
            1.0,
            1.0,
            1.0
          ],
          "specularFactor": 0.0
        }
      },
      "name": "Material.004",
      "pbrMetallicRoughness": {
        "baseColorTexture": {
          "index": 1
        },
        "metallicFactor": 0.0,
        "roughnessFactor": 0.0
      }
    },
    {
      "doubleSided": true,
      "name": "Material.006",
      "pbrMetallicRoughness": {
        "baseColorFactor": [
          0.0,
          0.0,
          0.0,
          1.0
        ],
        "metallicFactor": 0.0
      }
    }
  ],
  "meshes": [
    {
      "name": " Chwin Gum_Material_0",
      "primitives": [
        {
          "attributes": {
            "NORMAL": 1,
            "POSITION": 0,
            "TEXCOORD_0": 2
          },
          "indices": 3,
          "material": 0,
          "mode": 4
        }
      ]
    },
    {
      "name": "SEC PACK FLASH_Material.005_0",
      "primitives": [
        {
          "attributes": {
            "NORMAL": 5,
            "POSITION": 4,
            "TEXCOORD_0": 6
          },
          "indices": 7,
          "material": 1,
          "mode": 4
        }
      ]
    },
    {
      "name": "SEC PACK FLASH_Material.003_0",
      "primitives": [
        {
          "attributes": {
            "NORMAL": 9,
            "POSITION": 8,
            "TEXCOORD_0": 10
          },
          "indices": 11,
          "material": 2,
          "mode": 4
        }
      ]
    },
    {
      "name": "TH PACK FLASH_Material.001_0",
      "primitives": [
        {
          "attributes": {
            "NORMAL": 13,
            "POSITION": 12,
            "TEXCOORD_0": 14
          },
          "indices": 15,
          "material": 3,
          "mode": 4
        }
      ]
    },
    {
      "name": "F PACK FLASH_Material.004_0",
      "primitives": [
        {
          "attributes": {
            "NORMAL": 17,
            "POSITION": 16,
            "TEXCOORD_0": 18
          },
          "indices": 19,
          "material": 4,
          "mode": 4
        }
      ]
    },
    {
      "name": "F PACK FLASH_Material.006_0",
      "primitives": [
        {
          "attributes": {
            "NORMAL": 21,
            "POSITION": 20,
            "TEXCOORD_0": 22
          },
          "indices": 23,
          "material": 5,
          "mode": 4
        }
      ]
    },
    {
      "name": "F PACK FLASH_Material.005_0",
      "primitives": [
        {
          "attributes": {
            "NORMAL": 25,
            "POSITION": 24,
            "TEXCOORD_0": 26
          },
          "indices": 27,
          "material": 1,
          "mode": 4
        }
      ]
    }
  ],
  "nodes": [
    {
      "children": [
        1
      ],
      "matrix": [
        0.13496734201908112,
        0.0,
        0.0,
        0.0,
        0.0,
        2.9968770136408444e-17,
        -0.13496734201908112,
        0.0,
        0.0,
        0.13496734201908112,
        2.9968770136408444e-17,
        0.0,
        0.0,
        0.0,
        0.0,
        1.0
      ],
      "name": "Sketchfab_model"
    },
    {
      "children": [
        2
      ],
      "matrix": [
        0.009999999776482582,
        0.0,
        0.0,
        0.0,
        0.0,
        0.0,
        0.009999999776482582,
        0.0,
        0.0,
        -0.009999999776482582,
        0.0,
        0.0,
        0.0,
        0.0,
        0.0,
        1.0
      ],
      "name": "37fea3e384f94f38821c22422a660772.fbx"
    },
    {
      "children": [
        3
      ],
      "name": "Object_2"
    },
    {
      "children": [
        4,
        6,
        9,
        12,
        14,
        17,
        19
      ],
      "name": "RootNode"
    },
    {
      "children": [
        5
      ],
      "name": "Camera",
      "rotation": [
        0.16391468048095703,
        -0.5167240500450134,
        -0.25408586859703064,
        0.8009797930717468
      ],
      "scale": [
        100.00000762939453,
        100.0,
        100.0
      ],
      "translation": [
        -1608.8138427734375,
        3130.948974609375,
        -2990.26708984375
      ]
    },
    {
      "name": "Object_5"
    },
    {
      "children": [
        7
      ],
      "name": "Spot",
      "rotation": [
        -3.774895063202166e-08,
        -0.0,
        0.0,
        1.0
      ],
      "scale": [
        100.0,
        100.0,
        100.0
      ],
      "translation": [
        -52.23717498779297,
        1985.4498291015625,
        -1189.956298828125
      ]
    },
    {
      "children": [
        8
      ],
      "matrix": [
        1.0,
        0.0,
        0.0,
        0.0,
        0.0,
        2.220446049250313e-16,
        1.0,
        0.0,
        0.0,
        -1.0,
        2.220446049250313e-16,
        0.0,
        0.0,
        0.0,
        0.0,
        1.0
      ],
      "name": "Object_7"
    },
    {
      "name": "Object_8"
    },
    {
      "children": [
        10
      ],
      "name": "Spot.001",
      "rotation": [
        -3.774895063202166e-08,
        -0.0,
        0.0,
        1.0
      ],
      "scale": [
        100.0,
        100.0,
        100.0
      ],
      "translation": [
        -52.23717498779297,
        1985.4498291015625,
        -1189.956298828125
      ]
    },
    {
      "children": [
        11
      ],
      "matrix": [
        1.0,
        0.0,
        0.0,
        0.0,
        0.0,
        2.220446049250313e-16,
        1.0,
        0.0,
        0.0,
        -1.0,
        2.220446049250313e-16,
        0.0,
        0.0,
        0.0,
        0.0,
        1.0
      ],
      "name": "Object_10"
    },
    {
      "name": "Object_11"
    },
    {
      "children": [
        13
      ],
      "name": " Chwin Gum",
      "rotation": [
        2.1843904463025865e-08,
        -0.03284154459834099,
        7.177748950759621e-10,
        0.9994605779647827
      ],
      "scale": [
        101.89222717285156,
        114.76504516601563,
        52.46080017089844
      ],
      "translation": [
        -731.6452026367188,
        881.3706665039063,
        469.08349609375
      ]
    },
    {
      "mesh": 0,
      "name": " Chwin Gum_Material_0"
    },
    {
      "children": [
        15,
        16
      ],
      "name": "SEC PACK FLASH",
      "rotation": [
        0.9992203712463379,
        0.0005643725162371993,
        0.0390523262321949,
        0.005783394444733858
      ],
      "scale": [
        139.07244873046875,
        147.41123962402344,
        147.53591918945313
      ],
      "translation": [
        -244.19827270507813,
        1356.1939697265625,
        -404.1567687988281
      ]
    },
    {
      "mesh": 1,
      "name": "SEC PACK FLASH_Material.005_0"
    },
    {
      "mesh": 2,
      "name": "SEC PACK FLASH_Material.003_0"
    },
    {
      "children": [
        18
      ],
      "name": "TH PACK FLASH",
      "rotation": [
        0.9989888668060303,
        0.0005323493387550116,
        0.04458170756697655,
        0.005786684807389975
      ],
      "scale": [
        145.7408447265625,
        164.1533966064453,
        152.36033630371094
      ],
      "translation": [
        -504.8226013183594,
        995.0826416015625,
        -6.49648904800415
      ]
    },
    {
      "mesh": 3,
      "name": "TH PACK FLASH_Material.001_0"
    },
    {
      "children": [
        20,
        21,
        22
      ],
      "name": "F PACK FLASH",
      "rotation": [
        -0.03253547474741936,
        0.7061722278594971,
        0.7067580223083496,
        0.027483917772769928
      ],
      "scale": [
        100.00025177001953,
        100.00000762939453,
        104.89208221435547
      ],
      "translation": [
        -5.3236870765686035,
        500.8040771484375,
        -630.2273559570313
      ]
    },
    {
      "mesh": 4,
      "name": "F PACK FLASH_Material.004_0"
    },
    {
      "mesh": 5,
      "name": "F PACK FLASH_Material.006_0"
    },
    {
      "mesh": 6,
      "name": "F PACK FLASH_Material.005_0"
    }
  ],
  "samplers": [
    {
      "magFilter": 9729,
      "minFilter": 9987,
      "wrapS": 10497,
      "wrapT": 10497
    }
  ],
  "scene": 0,
  "scenes": [
    {
      "name": "Sketchfab_Scene",
      "nodes": [
        0
      ]
    }
  ],
  "textures": [
    {
      "sampler": 0,
      "source": 0
    },
    {
      "sampler": 0,
      "source": 1
    },
    {
      "sampler": 0,
      "source": 2
    }
  ]
}
